<svg xmlns="http://www.w3.org/2000/svg" width="1200" height="675" viewBox="0 0 1200 675" role="img" aria-labelledby="ttl dsc"><title id="ttl">Conta de luz subiu? Entenda sua fatura</title><desc id="dsc">Capa editorial original do Caderninho com fatura ilustrada, consumo em quilowatts-hora, tarifa, bandeira e tributos.</desc><defs><radialGradient id="grad" cx="15%" cy="20%" r="100%"><stop stop-color="#153a3c"/><stop offset=".56" stop-color="#101b24"/><stop offset="1" stop-color="#0d1117"/></radialGradient></defs><rect width="1200" height="675" fill="url(#grad)"/><circle cx="1130" cy="60" r="290" fill="#288A89" opacity=".065"/><circle cx="60" cy="615" r="270" fill="#288A89" opacity=".035"/><rect x="40" y="40" width="1120" height="595" rx="26" fill="none" stroke="#288A89" stroke-width="2" opacity=".7"/><text x="80" y="124" fill="#6dd0c9" font-family="Arial,sans-serif" font-size="21" font-weight="700" letter-spacing="3">CADERNINHO DO NOTINHA</text><text x="80" y="270" font-family="Georgia,serif" font-weight="700" font-size="67" fill="#f0f6fc">Conta de luz</text><text x="80" y="352" font-family="Georgia,serif" font-weight="700" font-size="67" fill="#f0f6fc">subiu?</text><text x="80" y="417" font-family="Arial,sans-serif" font-size="24" fill="#b7c5ce">Entenda sua fatura</text><text x="80" y="454" font-family="Arial,sans-serif" font-size="24" fill="#b7c5ce">antes de pagar.</text><g transform="translate(690,132)"><rect x="14" y="17" width="405" height="410" rx="25" fill="#06151a" opacity=".48"/><rect x="0" y="0" width="405" height="410" rx="25" fill="#1c2a33" stroke="#3b565b" stroke-width="2"/><rect x="26" y="27" width="353" height="60" rx="15" fill="#288A89" opacity=".22"/><circle cx="61" cy="57" r="20" fill="#288A89"/><path d="M61 43L52 60H61L58 73L73 54H63L68 43Z" fill="#f0f6fc"/><text x="94" y="65" fill="#f0f6fc" font-family="Arial,sans-serif" font-size="23" font-weight="700">FATURA DE ENERGIA</text><text x="31" y="128" fill="#b8c8d0" font-family="Arial,sans-serif" font-size="20">Consumo (kWh)</text><rect x="29" y="145" width="347" height="13" rx="6" fill="#2b4249"/><rect x="29" y="145" width="225" height="13" rx="6" fill="#288A89"/><text x="31" y="208" fill="#b8c8d0" font-family="Arial,sans-serif" font-size="20">Tarifa e bandeira</text><rect x="29" y="225" width="347" height="13" rx="6" fill="#2b4249"/><rect x="29" y="225" width="170" height="13" rx="6" fill="#288A89"/><text x="31" y="288" fill="#b8c8d0" font-family="Arial,sans-serif" font-size="20">Tributos e créditos</text><rect x="29" y="305" width="347" height="13" rx="6" fill="#2b4249"/><rect x="29" y="305" width="267" height="13" rx="6" fill="#288A89"/><path d="M30 364H375" stroke="#4e6970" stroke-width="2"/><text x="31" y="391" fill="#87d1cd" font-family="Arial,sans-serif" font-size="17">Olhe além do valor total</text></g><text x="80" y="605" fill="#8fa9af" font-family="Arial,sans-serif" font-size="19">GUIA PRÁTICO · OUTUBRO 2026</text></svg>